<?xml version="1.0" encoding="UTF-8"?>
<svg width="178px" height="40px" viewBox="0 0 178 40" version="1.1" xmlns="http://www.w3.org/2000/svg"
     xmlns:xlink="http://www.w3.org/1999/xlink">


    <path d="M164.999848,14.2622364 C164.034008,14.2622364 163.16193,14.4974179 162.383614,14.9674787 C161.604692,15.4375394 160.985073,16.1040885 160.523849,16.9674283 C160.062928,17.8310704 159.832923,18.8419276 159.832923,20.0003023 C159.832923,21.1589793 160.062928,22.1695342 160.523849,23.032874 C160.985073,23.8965161 161.604692,24.5630652 162.383614,25.0328236 C163.16193,25.5031866 164.034008,25.7377636 164.999848,25.7377636 C165.965385,25.7377636 166.837463,25.5031866 167.616386,25.0328236 C168.395005,24.5630652 169.01523,23.8965161 169.475848,23.032874 C169.936465,22.1695342 170.167077,21.1589793 170.167077,20.0003023 C170.167077,18.8419276 169.936465,17.8310704 169.475848,16.9674283 C169.01523,16.1040885 168.395005,15.4375394 167.616386,14.9674787 C166.837463,14.4974179 165.965385,14.2622364 164.999848,14.2622364 Z M136.626392,7.5 C138.211137,7.5 139.76818,7.67665063 141.298132,8.02932211 C142.827778,8.38262337 144.175694,8.89997985 145.342487,9.58328085 L142.998551,15.4234577 C140.731325,14.239804 138.584949,13.6475049 136.560336,13.6475049 C134.557336,13.6475049 133.555836,14.1484873 133.555836,15.1501373 C133.555836,15.628448 133.852937,15.9867874 134.44714,16.2261002 C135.041648,16.4650981 136.020622,16.7210998 137.385889,16.9944202 C139.146581,17.3360707 140.632088,17.7287326 141.843021,18.1727209 C143.053344,18.6167091 144.104463,19.3396856 144.996376,20.3413356 C145.887377,21.3436154 146.333333,22.7095876 146.333333,24.4398821 C146.333333,25.9425145 145.925427,27.3034486 145.111442,28.5211099 C144.297153,29.739401 143.08135,30.7067285 141.46312,31.4240371 C139.8455,32.1413457 137.881159,32.5 135.569794,32.5 C133.655072,32.5 131.78936,32.277691 129.97357,31.8340177 C128.157476,31.3900295 126.666184,30.7920624 125.5,30.041061 L128.00923,24.1665617 C129.109358,24.827191 130.341903,25.356828 131.706865,25.754528 C133.071523,26.1531728 134.381084,26.3521803 135.635851,26.3521803 C136.714062,26.3521803 137.484821,26.2444895 137.946911,26.0278485 C138.409306,25.8118372 138.640351,25.4871905 138.640351,25.0545381 C138.640351,24.5538706 138.33777,24.1785273 137.732304,23.9275638 C137.126838,23.67723 136.131122,23.4039096 134.744546,23.1079175 C132.961328,22.7209235 131.47582,22.3049601 130.28711,21.8612867 C129.098703,21.4172985 128.063718,20.6886541 127.183677,19.6756682 C126.303026,18.6623674 125.862853,17.2907273 125.862853,15.5601179 C125.862853,14.0571706 126.27015,12.6911983 127.084745,11.4615714 C127.89873,10.2322594 129.115446,9.26461697 130.733066,8.55864423 C132.350687,7.85298637 134.315332,7.5 136.626392,7.5 Z M72,8 L72,14.1028147 L60.2955521,14.1028147 L60.2955521,18.2172991 L70.5591833,18.2172991 L70.5591833,24.3197977 L60.2955521,24.3197977 L60.2955521,32 L52,32 L52,8 L72,8 Z M164.999848,8 C167.479232,8 169.706156,8.51389274 171.680924,9.54077134 C173.655692,10.5685568 175.202614,11.9950626 176.321386,13.8196841 C177.440766,15.6449102 178,17.7050155 178,20.0003023 C178,22.2952868 177.440766,24.3556944 176.321386,26.1803159 C175.202614,28.0058443 173.655692,29.4320478 171.680924,30.4589264 C169.706156,31.4861073 167.479232,32 164.999848,32 C162.520161,32 160.29354,31.4861073 158.318772,30.4589264 C156.344308,29.4320478 154.797689,28.0058443 153.67831,26.1803159 C152.559538,24.3556944 152,22.2952868 152,20.0003023 C152,17.7050155 152.559538,15.6449102 153.67831,13.8196841 C154.797689,11.9950626 156.344308,10.5685568 158.318772,9.54077134 C160.29354,8.51389274 162.520161,8 164.999848,8 Z M79.0019177,8.00076568 L79.0078449,8.00268682 L87,8.00268682 L87,32 L79.0078449,32 L79.0078449,8.06748207 C79.0001175,8.02813081 78.99801,8.0051364 79.0019177,8.00076568 Z M100.747926,8 L110.000107,18.9029411 L110.000107,8 L118,8 L118,32 L111.252074,32 L101.999893,21.0970589 L101.999893,32 L94,32 L94,8 L100.747926,8 Z"
          id="characters" fill="#FFFFFF"></path>
    <g id="Rectangle" transform="translate(0.000000, -0.000000)">
        <rect fill="#DBAF03" x="0" y="1.3500312e-13" width="40" height="40"></rect>
        <polygon id="ï¼Line-" fill="#FFFFFF"
                 points="12.2728068 32.2951383 26.2031802 18.510299 26.3744002 16.9387611 11.8045283 31.0892839"></polygon>
        <path d="M19.9144894,10.095264 C20.9126188,8.97924864 22.6203208,9.76899421 22.6203208,11.3465674 L22.6203208,11.3465674 L22.6203208,27.1634613 C22.6203208,28.7136671 22.0743078,30.2016138 21.1003458,31.3057528 L21.1003458,31.3057528 L20.0931701,32.447439 C19.0982762,33.5753308 17.3796791,32.7882408 17.3796791,31.2047663 L17.3796791,31.2047663 L17.3796791,15.3723814 C17.3796791,13.8080862 17.9355967,12.3078204 18.9253402,11.2012472 L18.9253402,11.2012472 L19.9144894,10.095264 Z"
              id="Combined-Shape-path" fill="#FFFFFF"></path>
        <path d="M12.1121773,22.1239646 C13.105949,21.1425424 14.8088716,21.8354634 14.8088716,23.2213054 L14.8088716,23.2213054 L14.8088716,28.5877519 C14.8088716,29.0492891 15.3756793,29.2804786 15.7071338,28.9540934 L15.7071338,28.9540934 L13.3643243,31.2097131 C13.3358425,31.2392432 13.3082816,31.2694857 13.2790105,31.2984329 L13.2790105,31.2984329 L12.2728068,32.2951383 C11.2796929,33.2788918 9.574468,32.5864889 9.574468,31.199546 L9.574468,31.199546 L9.574468,26.7712627 C9.574468,25.4000563 10.126673,24.0847368 11.109986,23.1136112 L11.109986,23.1136112 L12.1121773,22.1239646 Z"
              id="Combined-Shape-path" fill="#FFFFFF"></path>
        <path d="M27.6515062,15.5808531 C28.6314381,14.597101 30.3140288,15.2894382 30.3140288,16.6764438 L30.3140288,16.6764438 L30.3140288,21.1046559 C30.3140288,22.4759899 29.7692183,23.7913075 28.7988923,24.7624317 L28.7988923,24.7624317 L27.8100036,25.7520121 C26.8294226,26.7334329 25.1491684,26.0405129 25.1491684,24.6547376 L25.1491684,24.6547376 L25.1491684,19.2882342 C25.1491684,18.8266976 24.6199859,18.6295783 24.292866,18.9558982 L24.292866,18.9558982 L26.5745416,16.6662767 C26.6026454,16.6367467 26.6298405,16.6065043 26.6586582,16.577557 L26.6586582,16.577557 L27.6515062,15.5808531 Z"
              id="Combined-Shape-path" fill="#FFFFFF"></path>
        <path d="M27.8051777,7.021277 C29.2523761,7.021277 30.4255318,8.18844751 30.4255318,9.62811461 C30.4255318,11.067848 29.2523761,12.2349522 27.8051777,12.2349522 C26.3580459,12.2349522 25.1848901,11.067848 25.1848901,9.62811461 C25.1848901,8.18844751 26.3580459,7.021277 27.8051777,7.021277 Z"
              id="Combined-Shape-path" fill="#FFFFFF"></path>

    </g>

</svg>
